<?xml version="1.0" standalone="no"?>
<!DOCTYPE svg PUBLIC "-//W3C//DTD SVG 20010904//EN"
 "http://www.w3.org/TR/2001/REC-SVG-20010904/DTD/svg10.dtd">
<svg version="1.0" xmlns="http://www.w3.org/2000/svg"
 width="478.000000pt" height="478.000000pt" viewBox="0 0 478.000000 478.000000"
 preserveAspectRatio="xMidYMid meet">
<metadata>
Created by potrace 1.14, written by Peter Selinger 2001-2017
</metadata>
<g transform="translate(0.000000,478.000000) scale(0.100000,-0.100000)"
fill="#000000" stroke="none">
<path d="M1225 4305 c-23 -91 -110 -224 -197 -298 -59 -50 -175 -117 -204
-117 -10 -1 18 -20 63 -43 162 -82 259 -188 328 -355 l22 -54 21 60 c29 78 87
166 153 231 56 55 190 141 221 141 35 0 17 15 -60 52 -111 53 -220 156 -281
268 -7 14 -23 52 -36 85 -23 59 -23 59 -30 30z"/>
<path d="M2481 4240 c-5 -3 -59 -138 -121 -300 -61 -162 -124 -329 -140 -370
-16 -41 -80 -212 -144 -380 -63 -168 -117 -313 -121 -322 -6 -15 -14 -12 -59
22 -148 112 -418 189 -686 195 -120 3 -179 -1 -300 -21 -19 -3 -48 -8 -65 -11
-16 -2 -76 -20 -133 -38 -197 -66 -292 -156 -292 -277 1 -85 64 -171 145 -195
47 -15 134 -9 172 10 47 25 76 66 123 173 23 55 52 115 63 134 119 206 422
223 596 35 90 -97 132 -243 132 -460 0 -194 -20 -263 -101 -345 -90 -91 -208
-143 -489 -216 -287 -74 -413 -123 -511 -199 -75 -58 -122 -115 -160 -196 -77
-166 -65 -382 31 -524 68 -102 211 -193 344 -221 98 -21 313 -26 383 -10 142
33 203 57 294 118 59 39 190 147 196 160 9 20 33 3 62 -44 105 -171 266 -252
480 -244 207 9 338 89 404 247 15 35 14 37 -8 48 -21 12 -27 8 -81 -48 -76
-80 -147 -102 -248 -76 -83 21 -137 90 -163 206 -10 43 -15 265 -17 657 l-2
382 85 1 c86 0 721 0 751 -1 10 0 20 -11 23 -26 4 -14 16 -45 26 -68 10 -22
33 -77 51 -121 17 -44 36 -91 42 -105 6 -14 11 -27 12 -30 1 -3 7 -17 13 -31
131 -315 189 -471 200 -534 32 -192 -55 -340 -233 -398 -44 -14 -149 -35 -210
-42 -11 -1 -23 -3 -26 -4 -5 -1 -5 -24 0 -53 0 -4 382 -7 849 -5 l847 2 3 27
c4 31 9 29 -138 53 -215 35 -322 123 -448 370 -53 103 -198 438 -262 605 -10
25 -47 115 -83 200 -35 85 -102 245 -147 355 -45 110 -88 214 -96 230 -7 17
-110 266 -230 555 -119 289 -234 568 -256 620 -21 52 -63 154 -93 225 -29 72
-68 166 -87 210 l-33 79 -68 1 c-37 1 -71 -1 -76 -5z m84 -1247 c126 -313 246
-608 266 -658 l37 -90 -396 -3 c-217 -1 -396 -1 -397 0 -2 2 -5 84 -8 183 -3
99 -9 194 -12 210 -4 17 -8 35 -9 40 -1 6 -8 27 -15 48 -12 36 -9 46 140 437
84 220 155 400 158 400 4 0 109 -255 236 -567z m-908 -1255 c-3 -183 -8 -346
-11 -363 -4 -16 -11 -55 -17 -85 -28 -149 -79 -253 -168 -340 -207 -204 -486
-178 -604 56 -51 101 -61 239 -27 363 58 207 170 316 515 501 101 54 215 128
270 174 17 14 34 25 39 26 4 0 6 -149 3 -332z"/>
</g>
</svg>
